:SAMPLES-PER-SECOND 30
:FULLY-SPECIFIED
:DEGREES
139
root  34.78620034 36.55153109 -14.25343761 9.884777069 -3.637629747 4.755029678
lowerback  -7.532410145 -0.1617500186 -0.6804366708
upperback  -4.165090084 0.4141019881 -4.826630116
thorax  -0.05192989856 0.4033389986 -4.586090088
lowerneck  -4.088429928 -16.28140068 -10.62230015
upperneck  7.226570129 -22.22369766 12.10410023
head  5.371059895 -10.63659954 3.599920034
lclavicle  0 -4.497500157e-015 -2.743230041e-014
lhumerus  -47.77059937 30.03070068 61.01530075
lradius  0.006620147731 -6.507048965e-006 28.97290039
lwrist  4.824992743e-007 -3.790274832e-007 -30.70590019
lhand  -3.520533994e-031 -36.8227005 -10.63710022
lfingers  90 7.125020027 -90
lthumb  94.77182007 -25.4763279 100.9828873
rclavicle  0 -4.497500157e-015 -2.743230041e-014
rhumerus  33.89569855 -45.76070023 -35.19260025
rradius  -5.16745672e-007 2.214343908e-008 51.89929962
rwrist  -2.867388866e-005 0.08495520055 -165.621994
rhand  -3.185045644e-031 4.759829998 -5.176459789
rfingers  -90 -7.125020027 -90
rthumb  -83.77185059 -10.5833292 -59.28168106
rfemur  -11.89831161 14.29465389 11.82505131
rtibia  -1.158766866 -1.99539578 19.57269096
rfoot  0.8910425901 -22.39677811 -35.23184586
rtoes  3.994075537 19.60330009 -101.7506409
lfemur  -3.243860006 -17.35544586 -24.00078773
ltibia  7.547261715 -0.9275825024 5.901508331
lfoot  0.6911897659 -20.13242149 36.44079208
ltoes  -8.577021599 -18.13592529 -115.8522949
140
root  34.78673199 36.55138391 -14.25561379 9.870841026 -3.566147327 4.759960175
lowerback  -7.502830029 -0.1550969183 -0.6632166505
upperback  -4.181089878 0.424221009 -4.856299877
thorax  -0.08397000283 0.3990355432 -4.626550198
lowerneck  -4.074090004 -16.3076992 -10.62110043
upperneck  7.253339767 -22.26299858 12.09920025
head  5.380650043 -10.65530014 3.593489885
lclavicle  0 -4.497500157e-015 -2.743230041e-014
lhumerus  -47.73500061 30.00690079 60.97050095
lradius  0.006620147731 -6.507048965e-006 28.92939949
lwrist  4.824992743e-007 -3.790274832e-007 -30.72599983
lhand  -3.518363092e-031 -36.7181015 -10.67800045
lfingers  90 7.125020027 -90
lthumb  94.73143768 -25.52013206 100.8747406
rclavicle  0 -4.497500157e-015 -2.743230041e-014
rhumerus  34.44459915 -45.96220016 -35.3348999
rradius  -5.16745672e-007 2.214343908e-008 51.01530075
rwrist  -2.867388866e-005 0.08438699692 -164.9609985
rhand  -3.190808159e-031 4.877009869 -5.090240002
rfingers  -90 -7.125020027 -90
rthumb  -83.69550323 -10.66270924 -59.1583786
rfemur  -11.89650154 14.26474285 11.84442616
rtibia  -1.176989675 -1.964191914 19.60643387
rfoot  0.8829476237 -22.32719994 -35.25254059
rtoes  4.013553143 19.60330009 -101.80867
lfemur  -3.114179611 -17.39130592 -24.04311943
ltibia  7.626602173 -0.9180316925 5.708618641
lfoot  0.6770964861 -20.08787727 36.44503784
ltoes  -8.58586216 -18.1318512 -115.8806992
141
root  34.78683111 36.55115863 -14.25778096 9.881529808 -3.476698875 4.79244566
lowerback  -7.459339619 -0.1577919871 -0.6106860638
upperback  -4.174580097 0.4145500064 -4.863160133
thorax  -0.1018970013 0.397246182 -4.664430141
lowerneck  -4.102109909 -16.32209969 -10.64070034
upperneck  7.27368021 -22.2798996 12.07059956
head  5.392585754 -10.66427994 3.583001852
lclavicle  0 -4.497500157e-015 -2.743230041e-014
lhumerus  -47.73329926 30.09160042 60.89839935
lradius  0.006620147731 -6.507048965e-006 28.92120171
lwrist  4.824992743e-007 -3.790274832e-007 -30.80190086
lhand  -3.517861026e-031 -36.74980164 -10.67959976
lfingers  90 7.125020027 -90
lthumb  94.74662781 -25.52065086 100.9087524
rclavicle  0 -4.497500157e-015 -2.743230041e-014
rhumerus  35.12239838 -46.20539856 -35.57460022
rradius  -5.16745672e-007 2.214343908e-008 50.1106987
rwrist  -2.867388866e-005 0.08381932974 -164.7250061
rhand  -3.141665223e-031 4.993859768 -5.817249775
rfingers  -90 -7.125020027 -90
rthumb  -84.0437088 -10.04436398 -59.11199951
rfemur  -11.94055271 14.31760025 11.84308529
rtibia  -1.215180874 -1.928982139 19.69611931
rfoot  0.8393300772 -22.24072075 -35.35090256
rtoes  4.018955231 19.60330009 -101.8247681
lfemur  -2.946758032 -17.45948219 -24.13579559
ltibia  7.760135651 -0.9606814981 5.391871452
lfoot  0.6174270511 -19.86462021 36.37339401
ltoes  -8.641670227 -18.10601616 -116.0601501
142
root  34.78944133 36.55086427 -14.26019894 9.886917114 -3.40240407 4.814067364
lowerback  -7.430179596 -0.1678139567 -0.6034041047
upperback  -4.174793243 0.3984369934 -4.854430199
thorax  -0.1180209965 0.3960396945 -4.660649776
lowerneck  -4.095799923 -16.32920074 -10.68239975
upperneck  7.268869877 -22.28720284 12.05900002
head  5.392669678 -10.67072582 3.582826376
lclavicle  0 -4.497500157e-015 -2.743230041e-014
lhumerus  -47.74259949 30.06599998 60.91049957
lradius  0.006620147731 -6.507048965e-006 28.96590042
lwrist  4.824992743e-007 -3.790274832e-007 -30.71730042
lhand  -3.521806438e-031 -36.78680038 -10.62679958
lfingers  90 7.125020027 -90
lthumb  94.75286102 -25.46752167 100.9435501
rclavicle  0 -4.497500157e-015 -2.743230041e-014
rhumerus  35.67319489 -46.38569641 -35.71110153
rradius  -5.16745672e-007 2.214343908e-008 49.2466011
rwrist  -2.867388866e-005 0.08325241506 -164.6089935
rhand  -3.102094309e-031 4.876949787 -6.405189991
rfingers  -90 -7.125020027 -90
rthumb  -84.37902069 -9.533044815 -59.27832794
rfemur  -11.95339108 14.36494255 11.84157276
rtibia  -1.241999507 -1.895739555 19.72988319
rfoot  0.8280082345 -22.13687134 -35.42565918
rtoes  3.994110823 19.60330009 -101.7507477
lfemur  -2.921518326 -17.50923157 -24.16211319
ltibia  7.783191681 -0.9608225226 5.327888966
lfoot  0.6096266508 -19.84340668 36.35377502
ltoes  -8.626732826 -18.11295128 -116.0120926
143
root  34.79216868 36.55051885 -14.26309751 9.857379913 -3.325169325 4.830242157
lowerback  -7.449930668 -0.1743910462 -0.6282940507
upperback  -4.177577019 0.3938010037 -4.855780125
thorax  -0.1118879989 0.3953988552 -4.648240089
lowerneck  -4.097229958 -16.34670067 -10.68459988
upperneck  7.300779819 -22.3125 12.04179955
head  5.403227329 -10.68304348 3.573043585
lclavicle  0 -4.497500157e-015 -2.743230041e-014
lhumerus  -47.73479843 30.0673008 60.87749863
lradius  0.006620147731 -6.507048965e-006 28.98430061
lwrist  4.824992743e-007 -3.790274832e-007 -30.66550064
lhand  -3.526794488e-031 -36.78139877 -10.56739998
lfingers  90 7.125020027 -90
lthumb  94.73786926 -25.40943718 100.9324265
rclavicle  0 -4.497500157e-015 -2.743230041e-014
rhumerus  36.03739929 -46.50889969 -35.66839981
rradius  -5.16745672e-007 2.214343908e-008 48.49069977
rwrist  -2.867388866e-005 0.08268648386 -164.2940063
rhand  -3.113704142e-031 4.936369896 -6.2323699
rfingers  -90 -7.125020027 -90
rthumb  -84.27444458 -9.684869766 -59.20523834
rfemur  -11.90129757 14.36779594 11.84548092
rtibia  -1.257775545 -1.902642488 19.71190453
rfoot  0.8173459768 -22.12247467 -35.51194763
rtoes  4.012131691 19.60330009 -101.8044357
lfemur  -2.956228018 -17.52313232 -24.15369606
ltibia  7.73241663 -1.006167293 5.43981266
lfoot  0.6026935577 -19.79318428 36.26153183
ltoes  -8.598164558 -18.12617493 -115.9202347
144
root  34.79272737 36.55012837 -14.26808215 9.844391823 -3.254226685 4.832183361
lowerback  -7.466886044 -0.1777245104 -0.6353547573
upperback  -4.178190231 0.4016140103 -4.878399849
thorax  -0.1024520025 0.3953065872 -4.667570114
lowerneck  -4.086959839 -16.36420059 -10.67650032
upperneck  7.331180096 -22.33909988 12.02630043
head  5.41242981 -10.69579983 3.565429926
lclavicle  0 -4.497500157e-015 -2.743230041e-014
lhumerus  -47.71730042 30.11790085 60.7961998
lradius  0.006620147731 -6.507048965e-006 28.95199966
lwrist  4.824992743e-007 -3.790274832e-007 -30.72820091
lhand  -3.517986683e-031 -36.87379837 -10.66059971
lfingers  90 7.125020027 -90
lthumb  94.80071259 -25.4976368 101.0396576
rclavicle  0 -4.497500157e-015 -2.743230041e-014
rhumerus  36.27429962 -46.61369705 -35.52310181
rradius  -5.16745672e-007 2.214343908e-008 47.68249893
rwrist  -2.867388866e-005 0.08268648386 -164.2409973
rhand  -3.128577101e-031 5.048570156 -6.01075983
rfingers  -90 -7.125020027 -90
rthumb  -84.13043976 -9.881284714 -59.0758667
rfemur  -11.85903931 14.36487675 11.85936356
rtibia  -1.266064286 -1.914085507 19.67572975
rfoot  0.8163694143 -22.12107658 -35.58430862
rtoes  4.012486935 19.60330009 -101.8054962
lfemur  -3.423400879 -17.5598526 -23.96362877
ltibia  7.397491932 -1.000289917 6.226101398
lfoot  0.6840416193 -20.10296822 36.22073746
ltoes  -8.571644783 -18.13839912 -115.835022
